<svg xmlns="http://www.w3.org/2000/svg" width="13" height="14.95" viewBox="0 0 13 14.95"><g transform="translate(-336 -854)"><path d="M449.765-3536.527a1.623,1.623,0,0,1-.8-.211,1.624,1.624,0,0,1-.824-1.414v-11.7a1.624,1.624,0,0,1,.824-1.414,1.626,1.626,0,0,1,1.637.021l9.75,5.85a1.625,1.625,0,0,1,.789,1.393,1.625,1.625,0,0,1-.789,1.393l-9.75,5.85A1.624,1.624,0,0,1,449.765-3536.527Zm1.625-10.455v5.96l4.967-2.98Z" transform="translate(-112.14 4405.477)" fill="#6723b9"/><path d="M745.7-3604.663a.555.555,0,0,1-.284-.078.558.558,0,0,1-.274-.481v-12.3a.558.558,0,0,1,.274-.481.558.558,0,0,1,.554-.009l11.169,6.143a.558.558,0,0,1,.225.217.559.559,0,0,1-.2.758l-.026.015-11.167,6.142A.556.556,0,0,1,745.7-3604.663Zm.559-11.91v10.405l9.459-5.2Z" transform="translate(-408.919 4472.411)" fill="#6723b9"/></g></svg>