<svg xmlns="http://www.w3.org/2000/svg" xmlns:xlink="http://www.w3.org/1999/xlink" width="1711.519" height="771.223" viewBox="0 0 1711.519 771.223"><defs><linearGradient id="a" x1="0.342" y1="-0.259" x2="0.268" y2="0.3" gradientUnits="objectBoundingBox"><stop offset="0" stop-color="#5c219f"/><stop offset="1" stop-color="#3e0d74"/></linearGradient><linearGradient id="b" x1="0.75" y1="-0.017" x2="0.423" y2="0.572" xlink:href="#a"/><linearGradient id="c" x1="-0.033" y1="1.088" x2="0.587" y2="0.354" xlink:href="#a"/></defs><g transform="translate(0.138 -244.128)"><path d="M0,788l230-66L408,890l202-30,150,152" transform="translate(0 3)" stroke="#521494" stroke-width="1" fill="url(#a)"/><path d="M4798.205-2544.053l-206.054-206.068-281.5,75.427-75.447,281.5,206.082,206.061,281.5-75.426Z" transform="translate(-3586.217 3163.139)" stroke="#521494" stroke-width="1" fill="url(#b)"/><path d="M4571.875-2626.895l-123.219-123.227-168.335,45.1L4235.2-2536.682l123.236,123.223,168.335-45.1Z" transform="translate(-2861.052 3021.808)" stroke="#521494" stroke-width="1" fill="url(#c)"/><path d="M4571.875-2626.895l-123.219-123.227-168.335,45.1L4235.2-2536.682l123.236,123.223,168.335-45.1Z" transform="translate(-3902.052 2994.808)" stroke="#521494" stroke-width="1" fill="url(#c)"/></g></svg>