<svg xmlns="http://www.w3.org/2000/svg" xmlns:xlink="http://www.w3.org/1999/xlink" width="390" height="844" viewBox="0 0 390 844"><defs><clipPath id="a"><rect width="390" height="844" transform="translate(328.193 360.046)" fill="#3e0d74"/></clipPath><linearGradient id="b" x1="0.342" y1="-0.259" x2="0.268" y2="0.3" gradientUnits="objectBoundingBox"><stop offset="0" stop-color="#5c219f"/><stop offset="1" stop-color="#3e0d74"/></linearGradient><linearGradient id="c" x1="0.75" y1="-0.017" x2="0.423" y2="0.572" xlink:href="#b"/><linearGradient id="d" x1="-0.033" y1="1.088" x2="0.587" y2="0.354" xlink:href="#b"/></defs><g transform="translate(-328.193 -360.046)" clip-path="url(#a)"><path d="M0,775.1,185.039,722l143.2,135.159,162.512-24.135L611.432,955.31" transform="translate(175 308.107)" stroke="#521494" stroke-width="1" fill="url(#b)"/><path d="M4610.14-2612.888l-137.224-137.233-187.468,50.231L4235.2-2512.422l137.242,137.228,187.468-50.231Z" transform="translate(-3926.011 3349.233)" stroke="#521494" stroke-width="1" fill="url(#c)"/><path d="M4506.061-2650.983l-99.132-99.138L4271.5-2713.834l-36.3,135.428,99.146,99.135,135.428-36.287Z" transform="translate(-3569.675 3225.53)" stroke="#521494" stroke-width="1" fill="url(#d)"/><path d="M4506.061-2650.983l-99.132-99.138L4271.5-2713.834l-36.3,135.428,99.146,99.135,135.428-36.287Z" transform="translate(-3967.177 2994.808)" stroke="#521494" stroke-width="1" fill="url(#d)"/></g></svg>