<svg xmlns="http://www.w3.org/2000/svg" width="26.431" height="27.035" viewBox="0 0 26.431 27.035"><g transform="translate(1924.237 -678)"><g transform="translate(-1924.237 678)"><path d="M-1899.986,758.011h-22.073c-.119-.028-.239-.052-.356-.086a2.419,2.419,0,0,1-1.821-2.5q0-9.437.006-18.874a3.324,3.324,0,0,1,.157-.982,2.335,2.335,0,0,1,2.181-1.551v.285c0,.95,0,1.9,0,2.851a2.681,2.681,0,0,0,2.711,2.768c.545.013,1.091.014,1.637,0a2.7,2.7,0,0,0,2.717-2.793c0-.95,0-1.9,0-2.851V734h7.608c0,1.048,0,2.076,0,3.1a2.7,2.7,0,0,0,2.795,2.823q.752.008,1.5,0a2.689,2.689,0,0,0,2.765-2.8c0-.95,0-1.9,0-2.851v-.349a6.785,6.785,0,0,1,1.019.339,2.419,2.419,0,0,1,1.329,2.336q-.009,9.384,0,18.769a4.354,4.354,0,0,1-.018.448,2.407,2.407,0,0,1-.812,1.578A2.727,2.727,0,0,1-1899.986,758.011Zm-11.036-14.576h-8.87c-.866,0-1.262.392-1.262,1.253q0,4.738,0,9.477c0,.864.395,1.261,1.254,1.261h17.714a1.086,1.086,0,0,0,1.247-1.24q0-4.752,0-9.5a1.086,1.086,0,0,0-1.239-1.247Z" transform="translate(1924.237 -730.976)" fill="#777"/><path d="M-1566.032,678a1.076,1.076,0,0,1,.733,1.168c-.016,1.635-.005,3.27-.006,4.9,0,.788-.333,1.118-1.125,1.118-.475,0-.949.005-1.424,0a.9.9,0,0,1-.96-.933c-.012-1.776-.009-3.551,0-5.327a.966.966,0,0,1,.725-.93Z" transform="translate(1587.59 -678)" fill="#777"/><path d="M-1843.945,678a1.066,1.066,0,0,1,.74,1.162c-.017,1.644-.005,3.287-.006,4.931,0,.757-.338,1.1-1.091,1.1q-.673,0-1.345,0a.944.944,0,0,1-1.076-1.086q0-1.925,0-3.85c0-.36.015-.722,0-1.081A1.055,1.055,0,0,1-1846,678Z" transform="translate(1850.823 -678)" fill="#777"/><path d="M-1704.328,948.875c.334,0,.669-.005,1,0a.622.622,0,0,1,.682.67c.011.668.009,1.337,0,2.005a.614.614,0,0,1-.641.684q-1.041.031-2.084,0a.614.614,0,0,1-.644-.681c-.009-.668-.01-1.337,0-2.005a.622.622,0,0,1,.68-.672C-1705,948.87-1704.662,948.875-1704.328,948.875Z" transform="translate(1717.541 -934.57)" fill="#777"/><path d="M-1704.334,1053.411c-.325,0-.651.006-.976,0a.634.634,0,0,1-.691-.691q-.013-.989,0-1.979a.635.635,0,0,1,.687-.7c.668-.011,1.337-.012,2.005,0a.634.634,0,0,1,.678.705q.01.976,0,1.952a.643.643,0,0,1-.727.709C-1703.683,1053.414-1704.009,1053.411-1704.334,1053.411Z" transform="translate(1717.531 -1030.39)" fill="#777"/><path d="M-1805.525,948.879c.334,0,.668,0,1,0a.608.608,0,0,1,.679.642q.027,1.041,0,2.083a.6.6,0,0,1-.657.637q-1.015.025-2.031,0a.62.62,0,0,1-.667-.708q-.007-.976,0-1.952a.625.625,0,0,1,.7-.7C-1806.176,948.875-1805.851,948.879-1805.525,948.879Z" transform="translate(1813.384 -934.574)" fill="#777"/><path d="M-1601.278,950.553c0,.325,0,.651,0,.976a.606.606,0,0,1-.635.685q-1.041.031-2.083,0a.6.6,0,0,1-.639-.655c-.016-.685-.017-1.372,0-2.057a.607.607,0,0,1,.675-.646q1-.01,2,0a.613.613,0,0,1,.677.669C-1601.272,949.867-1601.278,950.21-1601.278,950.553Z" transform="translate(1621.524 -934.549)" fill="#777"/><path d="M-1807.188,1051.722c0-.334-.005-.668,0-1a.621.621,0,0,1,.666-.685q1.015-.02,2.031,0a.612.612,0,0,1,.661.663q.023,1.015,0,2.031a.623.623,0,0,1-.706.671q-.976.008-1.952,0a.629.629,0,0,1-.7-.7C-1807.192,1052.373-1807.188,1052.047-1807.188,1051.722Z" transform="translate(1813.371 -1030.38)" fill="#777"/><path d="M-1601.277,1051.731c0,.334.005.668,0,1a.618.618,0,0,1-.669.679c-.668.009-1.337.008-2,0a.617.617,0,0,1-.684-.666q-.023-1.015,0-2.031a.619.619,0,0,1,.683-.669c.668-.011,1.337-.012,2,0a.62.62,0,0,1,.67.681C-1601.271,1051.063-1601.277,1051.4-1601.277,1051.731Z" transform="translate(1621.523 -1030.393)" fill="#777"/></g></g></svg>