<svg xmlns="http://www.w3.org/2000/svg" xmlns:xlink="http://www.w3.org/1999/xlink" width="47.857" height="47.827" viewBox="0 0 47.857 47.827"><defs><clipPath id="a"><rect width="47.857" height="47.827" fill="#fff"/></clipPath></defs><g opacity="0.3"><g clip-path="url(#a)"><path d="M0,23.893A23.929,23.929,0,1,1,23.69,47.826,23.96,23.96,0,0,1,0,23.893M23.971,4.357A19.568,19.568,0,1,0,43.5,23.877,19.579,19.579,0,0,0,23.971,4.357" transform="translate(0 0)" fill="#fff"/><path d="M116.085,113.01c2.04,2.036,4.033,4.029,6.032,6.017a2.2,2.2,0,0,1,.723,2.115,2.172,2.172,0,0,1-3.661,1.1c-.925-.9-1.83-1.821-2.742-2.735-1.127-1.128-2.253-2.258-3.418-3.426-.155.147-.289.268-.416.395q-2.866,2.864-5.733,5.727a2.1,2.1,0,0,1-2.194.585,2.072,2.072,0,0,1-1.51-1.634,2.152,2.152,0,0,1,.682-2.079q2.832-2.826,5.658-5.657c.129-.129.251-.266.4-.422-.148-.157-.27-.293-.4-.422q-2.846-2.848-5.692-5.7a2.1,2.1,0,0,1-.606-2.188,2.069,2.069,0,0,1,1.619-1.525,2.173,2.173,0,0,1,2.122.7q2.805,2.816,5.618,5.625a4.007,4.007,0,0,1,.353.487c.229-.213.365-.332.493-.46q2.812-2.81,5.62-5.623a2.176,2.176,0,0,1,3.34,2.788,6.112,6.112,0,0,1-.453.482q-2.7,2.7-5.4,5.406c-.13.13-.254.266-.427.447" transform="translate(-89.074 -89.069)" fill="#fff"/></g></g></svg>