<svg xmlns="http://www.w3.org/2000/svg" width="120" height="120" viewBox="0 0 120 120"><g transform="translate(0)"><g transform="translate(0 0)"><path d="M3895.97,6718.227h7.676a6.768,6.768,0,0,0,.921.2,56.147,56.147,0,0,1,23.272,6.784c18.549,10.317,29.234,26.066,31.617,47.184a55.557,55.557,0,0,1-6.714,33.925c-11.271,20.174-28.59,30.917-51.7,31.859a55.826,55.826,0,0,1-31.864-8.4c-15.458-9.445-24.963-23.121-28.379-40.958-.427-2.229-.643-4.5-.956-6.748v-7.681c.308-2.212.563-4.431.933-6.631a60.043,60.043,0,0,1,48.339-48.567C3891.385,6718.8,3893.683,6718.545,3895.97,6718.227Zm-27.271,38.581c5.669-4.394,12.163-7.037,18.96-9.076a2.2,2.2,0,0,0-2.418-1.13,41.515,41.515,0,0,0-20.131,7.353,4.952,4.952,0,0,0-1.492,1.64,93.478,93.478,0,0,0-6.9,16.429,88.023,88.023,0,0,0-4.389,25.9,2,2,0,0,0,.375,1.283c6.555,7,14.763,10.273,24.228,10.666a1.223,1.223,0,0,0,.867-.224c1.685-1.96,3.331-3.954,5.076-6.046-5.5-1.7-10.312-4.1-13.939-8.462a59.716,59.716,0,0,0,61.753,0c-3.638,4.366-8.458,6.764-13.932,8.461,1.527,1.846,2.986,3.533,4.351,5.295a2.306,2.306,0,0,0,2.227.979c9.094-.576,17.021-3.738,23.352-10.457a2.15,2.15,0,0,0,.585-1.426c-.258-3.744-.409-7.512-.947-11.22a95.481,95.481,0,0,0-10.468-31.437,3.859,3.859,0,0,0-1.187-1.289,41.725,41.725,0,0,0-20.226-7.437,2.2,2.2,0,0,0-2.482,1.123c6.8,2.032,13.295,4.689,18.992,9.09Q3899.816,6742.677,3868.7,6756.808Z" transform="translate(-3839.84 -6718.227)" fill="#581d9d"/><path d="M4123.847,6968.823a8.465,8.465,0,0,1-8.237-8.581,8.574,8.574,0,0,1,8.754-8.482,8.54,8.54,0,0,1-.517,17.063Z" transform="translate(-4049.447 -6895.691)" fill="#581d9d"/><path d="M4002.475,6968.826a8.539,8.539,0,0,1-.26-17.068,8.582,8.582,0,0,1,8.627,8.613A8.464,8.464,0,0,1,4002.475,6968.826Z" transform="translate(-3957.07 -6895.69)" fill="#581d9d"/></g></g></svg>