<svg xmlns="http://www.w3.org/2000/svg" width="120" height="120" viewBox="0 0 120 120"><g transform="translate(0)"><g transform="translate(0 0)"><path d="M1252.058,6840.509v-7.5c.095-.77.2-1.537.283-2.306,1.4-12.852,6.193-24.281,14.931-33.808,14.708-16.032,33.024-22.492,54.521-19.333a55.814,55.814,0,0,1,31.716,15.9c15.606,15.446,21.512,34.174,17.156,55.669-3.723,18.368-14.427,31.89-30.865,40.844a52.286,52.286,0,0,1-11.1,4.438v-44.355h12.845l1.947-15.071h-14.769a5.124,5.124,0,0,1-.082-.593c.006-3.4-.048-6.8.045-10.2.1-3.746,2.088-5.769,5.841-5.945,2.69-.126,5.388-.065,8.082-.087.414,0,.828,0,1.232,0V6804.7c-4.811-.4-9.568-.917-14.306-.336a22.135,22.135,0,0,0-6.812,1.921c-6.247,3.006-8.982,8.466-9.46,15.1-.291,4.045-.123,8.124-.16,12.187,0,.454,0,.907,0,1.493h-12.818v14.977h12.818v1.388q0,22.039-.005,44.078c0,.425-.074.848-.114,1.271H1308.3a4.971,4.971,0,0,0-.783-.185,56.085,56.085,0,0,1-20.694-5.414q-27.8-13.567-33.829-43.967C1252.56,6845,1252.364,6842.746,1252.058,6840.509Z" transform="translate(-1252.058 -6776.782)" fill="#581d9d"/></g></g></svg>