<svg xmlns="http://www.w3.org/2000/svg" width="50" height="50" viewBox="0 0 50 50"><g transform="translate(-3040.211 -4156.257)"><path d="M3066.757,4206.258h-3.127a3.78,3.78,0,0,0-.424-.084,23.761,23.761,0,0,1-13-4.924c-7.45-5.823-10.812-13.5-9.822-22.917a23.83,23.83,0,0,1,8.94-16.347,24.777,24.777,0,0,1,28.408-2.3,24.387,24.387,0,0,1,12.106,17.337c.166.892.253,1.8.376,2.7v3.123a2.819,2.819,0,0,0-.081.377,24.039,24.039,0,0,1-4.055,11.8,24.678,24.678,0,0,1-16.525,10.858C3068.627,4206.043,3067.688,4206.131,3066.757,4206.258Zm-20.568-24.98a10.721,10.721,0,1,0,10.7-10.775A10.74,10.74,0,0,0,3046.189,4181.278Zm22.491-.038a16.658,16.658,0,0,0,.828,5.469,8.34,8.34,0,0,0,2.261,3.759,3.164,3.164,0,0,0,4.6-.064,7.3,7.3,0,0,0,1.837-2.788,17.32,17.32,0,0,0,.133-12.343A7.4,7.4,0,0,0,3076.2,4172a3.033,3.033,0,0,0-4.287-.01,8.462,8.462,0,0,0-1.7,2.223A14.809,14.809,0,0,0,3068.68,4181.24Zm11.751-.332a31.648,31.648,0,0,0,.613,7.019,9.149,9.149,0,0,0,.719,2c.294.6.773.584,1.106.012a3.84,3.84,0,0,0,.5-1.2c.276-1.53.592-3.062.714-4.608a33.5,33.5,0,0,0-.454-9.315,9.711,9.711,0,0,0-.764-2.191c-.283-.6-.766-.588-1.1-.011a5.453,5.453,0,0,0-.539,1.3A27.756,27.756,0,0,0,3080.43,4180.908Z" transform="translate(0 0)" fill="#fff"/></g></svg>