<svg xmlns="http://www.w3.org/2000/svg" width="41.016" height="41.016" viewBox="0 0 41.016 41.016"><path d="M2725.881,5000.263a20.508,20.508,0,1,0,20.508,20.509A20.531,20.531,0,0,0,2725.881,5000.263Zm5.689,12.165a.31.31,0,0,1-.31.309h-2.466a1.1,1.1,0,0,0-1.1,1.1v2.582h3.507a.31.31,0,0,1,.309.336l-.308,3.639a.309.309,0,0,1-.308.284h-3.2v12.08a.31.31,0,0,1-.31.309h-4.414a.31.31,0,0,1-.31-.309v-12.08h-2.207a.309.309,0,0,1-.31-.31v-3.64a.31.31,0,0,1,.31-.31h2.207v-3.508a4.428,4.428,0,0,1,4.428-4.429h4.167a.311.311,0,0,1,.31.31Z" transform="translate(-2705.373 -5000.263)" fill="#fff"/></svg>