<svg xmlns="http://www.w3.org/2000/svg" width="45" height="45" viewBox="0 0 45 45"><g transform="translate(-2142.255 -5254.192)"><g transform="translate(2142.255 5254.192)"><path d="M2163.3,5254.192h2.878a2.527,2.527,0,0,0,.345.074,21.061,21.061,0,0,1,8.727,2.544,22.108,22.108,0,0,1,11.856,17.694,20.833,20.833,0,0,1-2.518,12.722c-4.227,7.565-10.721,11.594-19.389,11.948a20.934,20.934,0,0,1-11.949-3.15,22.179,22.179,0,0,1-10.642-15.359c-.16-.836-.241-1.687-.359-2.53v-2.881c.116-.829.211-1.662.35-2.486a22.517,22.517,0,0,1,18.127-18.213C2161.584,5254.406,2162.446,5254.312,2163.3,5254.192Zm-10.226,14.468a21.33,21.33,0,0,1,7.11-3.4.828.828,0,0,0-.907-.423,15.562,15.562,0,0,0-7.549,2.757,1.856,1.856,0,0,0-.56.615,35.006,35.006,0,0,0-2.588,6.161,33.011,33.011,0,0,0-1.646,9.712.748.748,0,0,0,.141.481,12.641,12.641,0,0,0,9.085,4,.455.455,0,0,0,.325-.084c.632-.735,1.249-1.482,1.9-2.267a10.477,10.477,0,0,1-5.228-3.173,22.4,22.4,0,0,0,23.158,0,10.5,10.5,0,0,1-5.224,3.172c.573.692,1.12,1.325,1.631,1.986a.865.865,0,0,0,.835.366,12.624,12.624,0,0,0,8.757-3.921.807.807,0,0,0,.219-.535c-.1-1.4-.153-2.817-.355-4.208a35.8,35.8,0,0,0-3.926-11.788,1.439,1.439,0,0,0-.445-.483,15.647,15.647,0,0,0-7.585-2.789.826.826,0,0,0-.931.421,21.389,21.389,0,0,1,7.122,3.408A27,27,0,0,0,2153.077,5268.661Z" transform="translate(-2142.255 -5254.192)" fill="#fff"/><path d="M2421.534,5494.992a3.6,3.6,0,0,1-3.507-3.654,3.651,3.651,0,0,1,3.728-3.612,3.637,3.637,0,0,1-.22,7.266Z" transform="translate(-2393.761 -5467.172)" fill="#fff"/><path d="M2300.067,5494.994a3.636,3.636,0,0,1-.111-7.269,3.654,3.654,0,0,1,3.674,3.668A3.6,3.6,0,0,1,2300.067,5494.994Z" transform="translate(-2282.918 -5467.172)" fill="#fff"/></g></g></svg>