<svg xmlns="http://www.w3.org/2000/svg" width="41.016" height="41.016" viewBox="0 0 41.016 41.016"><g transform="translate(0 0)"><path d="M2644.344,5000.263a20.508,20.508,0,1,0,20.508,20.509A20.531,20.531,0,0,0,2644.344,5000.263Zm11.877,13.045a.58.58,0,0,1-.118.38,9.46,9.46,0,0,1-1.9,1.988c-.109.082-.292.168-.292.322,0,3.95-1.009,7.9-3.888,10.756a14.475,14.475,0,0,1-14.051,3.285,13.414,13.414,0,0,1-2.717-1.087c-.287-.157-.569-.318-.846-.5-.071-.055-.122-.108-.063-.145s.105-.033.324,0a9.614,9.614,0,0,0,4.065-.52c.71-.249,2.236-.748,2.677-1.42.01-.015.02-.015.031-.031-.178-.042-.356-.042-.533-.072a5.247,5.247,0,0,1-3.92-3.282c-.052-.13,0-.2.136-.172a5.6,5.6,0,0,0,1.865-.058,2.909,2.909,0,0,1-.632-.192,5.056,5.056,0,0,1-3.115-4.029,3.1,3.1,0,0,1-.031-.564c.01-.13.068-.172.183-.1a5.047,5.047,0,0,0,1.9.533c-.214-.167-.412-.35-.606-.533a5,5,0,0,1-.852-5.9c.095-.141.157-.141.272-.011a15.317,15.317,0,0,0,9.855,5.017c.1.016.114,0,.1-.115a5.267,5.267,0,0,1,.051-2.059,5,5,0,0,1,.975-1.951,5.2,5.2,0,0,1,1.63-1.333,5.092,5.092,0,0,1,2.022-.571,4.815,4.815,0,0,1,2.13.344,5.086,5.086,0,0,1,1.39.852,2.218,2.218,0,0,1,.25.255.19.19,0,0,0,.2.053,12.365,12.365,0,0,0,2.869-1.1.131.131,0,0,1,.127-.01c.042.031.026.083.006.125a4.425,4.425,0,0,1-.8,1.464c-.229.284-.8.989-1.192,1.055a9.78,9.78,0,0,0,2.414-.69c.1-.044.091-.063.091,0Z" transform="translate(-2623.836 -5000.263)" fill="#fff"/><g transform="translate(15.58 30.267)"><path d="M2644.57,5040.544Z" transform="translate(-2644.57 -5040.544)" fill="#fff" fill-rule="evenodd"/></g><g transform="translate(15.397 30.267)"><path d="M2644.51,5040.544c-.031,0-.395,0,0,0Z" transform="translate(-2644.327 -5040.544)" fill="#fff" fill-rule="evenodd"/></g><g transform="translate(16.385 30.27)"><path d="M2645.641,5040.566c0-.041.424,0,0,0C2645.641,5040.545,2645.693,5040.566,2645.641,5040.566Z" transform="translate(-2645.641 -5040.548)" fill="#fff" fill-rule="evenodd"/></g><g transform="translate(24.74 10.693)"><path d="M2656.86,5014.494a.083.083,0,0,1-.1,0Z" transform="translate(-2656.761 -5014.494)" fill="#fff" fill-rule="evenodd"/></g></g></svg>