<svg xmlns="http://www.w3.org/2000/svg" width="41.016" height="41.016" viewBox="0 0 41.016 41.016"><g transform="translate(0 0)"><path d="M2807.786,4936.034a20.508,20.508,0,1,0,20.507,20.509A20.531,20.531,0,0,0,2807.786,4936.034Zm12.278,23.8a5.266,5.266,0,0,1-5.266,5.266h-13.659a5.266,5.266,0,0,1-5.267-5.266v-6.4a5.266,5.266,0,0,1,5.267-5.267H2814.8a5.266,5.266,0,0,1,5.266,5.267Z" transform="translate(-2787.277 -4936.034)" fill="#fff"/><path d="M2812.05,4958.849c-.236-.135-.457.036-.457.309v6.133c0,.27.213.441.45.313l5.448-2.987a.358.358,0,0,0,.044-.623Z" transform="translate(-2793.322 -4941.694)" fill="#fff"/></g></svg>