<svg xmlns="http://www.w3.org/2000/svg" width="40.748" height="40.749" viewBox="0 0 40.748 40.749"><g transform="translate(0 0)"><g transform="translate(0 0)"><path d="M2807.83,5041.7a20.374,20.374,0,1,1,20.374-20.374A20.4,20.4,0,0,1,2807.83,5041.7Zm6.869-28.641a1.508,1.508,0,1,0,1.508,1.508A1.507,1.507,0,0,0,2814.7,5013.055Zm-6.7,1.933a6.333,6.333,0,1,0,6.333,6.333A6.341,6.341,0,0,0,2808,5014.988Zm0,10.39a4.056,4.056,0,1,1,4.056-4.057A4.061,4.061,0,0,1,2808,5025.378Zm12.778-9.32a7.725,7.725,0,0,0-7.725-7.725h-10.194a7.725,7.725,0,0,0-7.726,7.725v10.2a7.725,7.725,0,0,0,7.726,7.724h10.194a7.724,7.724,0,0,0,7.725-7.724Zm-2.419,10.2a5.305,5.305,0,0,1-5.306,5.3h-10.194a5.305,5.305,0,0,1-5.306-5.3v-10.2a5.306,5.306,0,0,1,5.306-5.306h10.194a5.306,5.306,0,0,1,5.306,5.306Z" transform="translate(-2787.455 -5000.947)" fill="#fff"/></g></g></svg>