<svg xmlns="http://www.w3.org/2000/svg" width="45" height="44.996" viewBox="0 0 45 44.996"><g transform="translate(-1521.89 -4577.374)"><g transform="translate(1521.89 4577.374)"><path d="M1521.89,4601.279v-2.812c.054-.419.111-.837.162-1.256a21.593,21.593,0,0,1,6.48-13.266,21.907,21.907,0,0,1,20.673-6.033,22.456,22.456,0,0,1,17.684,21.539,22.532,22.532,0,0,1-18.578,22.569c-.831.155-1.676.234-2.514.349h-2.812a1.911,1.911,0,0,0-.294-.069,21.726,21.726,0,0,1-10.743-3.7,22.168,22.168,0,0,1-9.707-14.809C1522.085,4602.962,1522,4602.117,1521.89,4601.279Zm22.195,5.724c.142.1.263.182.38.268q2.493,1.837,4.986,3.674c1.194.878,2.016.557,2.326-.9q1.173-5.514,2.347-11.028c.435-2.046.873-4.091,1.294-6.139a1.611,1.611,0,0,0-.324-1.719c-.539-.46-1.107-.179-1.654.032l-16.04,6.189c-1.814.7-3.631,1.394-5.438,2.111-.418.166-.913.385-.892.915.021.546.552.66.983.8,1.644.522,3.294,1.027,4.935,1.557a1,1,0,0,0,.936-.118q6.063-3.844,12.145-7.657a2.554,2.554,0,0,1,.616-.328,1.467,1.467,0,0,1,.522.05,2.349,2.349,0,0,1-.229.388,5.321,5.321,0,0,1-.45.418q-4.745,4.285-9.494,8.564a1.16,1.16,0,0,0-.435.893c-.043,1.053-.142,2.1-.215,3.155-.047.668-.087,1.337-.13,2.009a1.239,1.239,0,0,0,1.047-.448C1542.217,4608.8,1543.133,4607.919,1544.085,4607Z" transform="translate(-1521.89 -4577.374)" fill="#fff"/></g></g></svg>