<svg xmlns="http://www.w3.org/2000/svg" xmlns:xlink="http://www.w3.org/1999/xlink" width="21" height="21" viewBox="0 0 21 21"><defs><clipPath id="a"><rect width="21" height="21" fill="#9e50f0"/></clipPath></defs><g transform="translate(0.811 0.811)"><g transform="translate(-0.811 -0.811)" clip-path="url(#a)"><path d="M19.188,14.677a10.118,10.118,0,0,0,0-9.089.844.844,0,0,0-.057-.112,10.133,10.133,0,1,0,0,9.312.843.843,0,0,0,.057-.112M2.395,6.755H5.342a19.994,19.994,0,0,0-.258,2.533H1.731a8.377,8.377,0,0,1,.664-2.533m16.14,2.533H15.182a19.994,19.994,0,0,0-.258-2.533h2.947a8.377,8.377,0,0,1,.664,2.533m-5.042,0H10.977V6.755h2.234a18.012,18.012,0,0,1,.281,2.533M10.977,5.066V2.01a4.872,4.872,0,0,1,1.373,1.9,10.558,10.558,0,0,1,.439,1.154ZM9.288,2.01V5.066H7.476a10.558,10.558,0,0,1,.44-1.154,4.873,4.873,0,0,1,1.373-1.9m0,4.745V9.288H6.773a18.026,18.026,0,0,1,.281-2.533ZM1.731,10.977H5.084a20,20,0,0,0,.258,2.533H2.395a8.377,8.377,0,0,1-.664-2.533m5.042,0H9.288V13.51H7.054a18.029,18.029,0,0,1-.281-2.533M9.288,15.2v3.057a4.874,4.874,0,0,1-1.373-1.9,10.558,10.558,0,0,1-.44-1.154Zm1.689,3.057V15.2H12.79a10.558,10.558,0,0,1-.439,1.154,4.873,4.873,0,0,1-1.373,1.9m0-4.745V10.977h2.515a18.029,18.029,0,0,1-.281,2.533Zm4.2-2.533h3.353a8.377,8.377,0,0,1-.664,2.533H14.924a20,20,0,0,0,.258-2.533m1.7-5.911H14.551a12.72,12.72,0,0,0-.664-1.852,9.3,9.3,0,0,0-.436-.845,8.493,8.493,0,0,1,3.432,2.7m-10.07-2.7a9.255,9.255,0,0,0-.436.845,12.721,12.721,0,0,0-.664,1.852H3.382a8.493,8.493,0,0,1,3.432-2.7M3.382,15.2H5.714a12.729,12.729,0,0,0,.664,1.852,9.253,9.253,0,0,0,.436.845,8.493,8.493,0,0,1-3.432-2.7m10.07,2.7a9.276,9.276,0,0,0,.436-.845,12.728,12.728,0,0,0,.664-1.852h2.333a8.493,8.493,0,0,1-3.432,2.7" transform="translate(0.434 0.434)" fill="#9e50f0"/></g></g></svg>