<svg xmlns="http://www.w3.org/2000/svg" width="120" height="120" viewBox="0 0 120 120"><g transform="translate(0)"><g transform="translate(0 0)"><path d="M741.025,6782.773H748.7a6.641,6.641,0,0,0,.921.2,56.159,56.159,0,0,1,23.272,6.785c18.549,10.319,29.234,26.067,31.617,47.186a55.53,55.53,0,0,1-6.714,33.926c-11.3,20.21-28.655,30.963-51.823,31.861a55.817,55.817,0,0,1-31.745-8.4c-15.458-9.445-24.962-23.122-28.378-40.959-.427-2.229-.643-4.5-.956-6.748v-7.681c.308-2.212.562-4.431.933-6.631a60.042,60.042,0,0,1,48.339-48.57C736.44,6783.344,738.738,6783.091,741.025,6782.773Zm-33.1,59.885h-.1c0,4.56-.03,9.119.016,13.678a36.547,36.547,0,0,0,.347,5.135c1.125,7.375,4.7,13,11.767,16.006a26.316,26.316,0,0,0,10.284,1.985q14.027.056,28.055-.009a37.9,37.9,0,0,0,6.081-.463c7.507-1.267,13.083-5.1,15.879-12.42a26.505,26.505,0,0,0,1.652-9.515c.007-9.238.02-18.476-.013-27.714a35.784,35.784,0,0,0-.35-5.255c-1.173-7.675-4.988-13.386-12.429-16.276a26.057,26.057,0,0,0-9.38-1.708q-14.867-.067-29.734,0a25.258,25.258,0,0,0-10.7,2.271c-7.5,3.519-10.816,9.854-11.306,17.733C707.648,6831.606,707.923,6837.141,707.923,6842.658Z" transform="translate(-684.895 -6782.773)" fill="#581d9d"/><path d="M838.46,6908.188c4.862,0,9.726-.045,14.587.025a22.561,22.561,0,0,1,4.7.563c5.854,1.353,9.659,5.754,10.361,11.9a36.936,36.936,0,0,1,.237,4.108c.02,9.217.078,18.435-.038,27.65a22.889,22.889,0,0,1-1.066,6.764,12.094,12.094,0,0,1-11.472,8.82c-6.9.4-13.825.358-20.74.381-4.582.015-9.178-.007-13.744-.348-7-.521-11.692-5.351-12.482-12.476a34.72,34.72,0,0,1-.223-3.745c-.018-9.338-.075-18.677.04-28.014a22,22,0,0,1,1.071-6.521c1.826-5.536,5.927-8.4,11.473-8.834,4.8-.373,9.634-.287,14.454-.395.948-.021,1.9,0,2.846,0Zm-.028,10.351a19.716,19.716,0,1,0,19.308,19.8A19.449,19.449,0,0,0,838.433,6918.538Zm19.419,4.015a3.922,3.922,0,1,0-3.853-3.889A3.875,3.875,0,0,0,857.851,6922.553Z" transform="translate(-778.494 -6878.24)" fill="#581d9d"/><path d="M907.5,6992.839a12.715,12.715,0,1,1-12.55-12.871A12.681,12.681,0,0,1,907.5,6992.839Z" transform="translate(-834.82 -6932.672)" fill="#581d9d"/></g></g></svg>