<svg xmlns="http://www.w3.org/2000/svg" xmlns:xlink="http://www.w3.org/1999/xlink" width="247" height="77" viewBox="0 0 247 77"><defs><clipPath id="a"><path d="M95.431-6.241h2.7v-18.1h-2.7Zm24.34-11.583-3.1,7.849h-.093l-3.215-7.849h-2.911l4.823,10.97-2.75,6.1h2.818l7.431-17.073ZM104.445-8.3c-.883,0-2.119-.443-2.119-1.538,0-1.4,1.538-1.933,2.866-1.933a4.83,4.83,0,0,1,2.468.605A3.276,3.276,0,0,1,104.445-8.3Zm.327-9.923a5.075,5.075,0,0,0-4.821,2.772l2.4,1a2.56,2.56,0,0,1,2.469-1.328,2.6,2.6,0,0,1,2.841,2.329v.187a5.983,5.983,0,0,0-2.818-.7c-2.587,0-5.218,1.421-5.218,4.075,0,2.423,2.12,3.984,4.5,3.984a3.809,3.809,0,0,0,3.447-1.771h.094v1.4h2.61v-6.941c0-3.214-2.4-5.008-5.5-5.008Zm-16.7,2.6H84.228v-6.206h3.844a3.136,3.136,0,0,1,3.167,3.1,3.154,3.154,0,0,1-3.167,3.1ZM88-24.347H81.527V-6.241h2.7V-13.1H88a5.738,5.738,0,0,0,5.939-5.624A5.738,5.738,0,0,0,88-24.347ZM52.693-8.295A3.534,3.534,0,0,1,49.263-12a3.562,3.562,0,0,1,3.429-3.757A3.471,3.471,0,0,1,55.982-12a3.442,3.442,0,0,1-3.289,3.709Zm3.1-8.516H55.7a4.272,4.272,0,0,0-3.243-1.377A6.128,6.128,0,0,0,46.555-12a6.1,6.1,0,0,0,5.9,6.136,4.2,4.2,0,0,0,3.243-1.4h.093v.886c0,2.358-1.26,3.616-3.289,3.616a3.408,3.408,0,0,1-3.1-2.193l-2.356.98a5.87,5.87,0,0,0,5.46,3.639c3.173,0,5.857-1.867,5.857-6.417V-17.814H55.795ZM60.229-6.241h2.705v-18.1H60.229Zm6.7-5.973a3.378,3.378,0,0,1,3.219-3.593A2.389,2.389,0,0,1,72.432-14.5Zm8.4-2.054a5.727,5.727,0,0,0-5.273-3.92,5.855,5.855,0,0,0-5.81,6.161,6.028,6.028,0,0,0,6.113,6.159A6.131,6.131,0,0,0,75.488-8.6l-2.1-1.4a3.519,3.519,0,0,1-3.034,1.7,3.13,3.13,0,0,1-2.985-1.867L75.6-13.568ZM9.708-16.3v2.613H15.96a5.445,5.445,0,0,1-1.422,3.289A6.4,6.4,0,0,1,9.708-8.48a6.862,6.862,0,0,1-6.86-6.953,6.863,6.863,0,0,1,6.86-6.954,6.656,6.656,0,0,1,4.713,1.868l1.844-1.844A9.117,9.117,0,0,0,9.708-25,9.7,9.7,0,0,0,0-15.433,9.7,9.7,0,0,0,9.708-5.867,8.747,8.747,0,0,0,16.38-8.551a8.637,8.637,0,0,0,2.264-6.113A8.452,8.452,0,0,0,18.5-16.3Zm16.044,8a3.563,3.563,0,0,1-3.476-3.732,3.549,3.549,0,0,1,3.476-3.734,3.55,3.55,0,0,1,3.477,3.734,3.563,3.563,0,0,1-3.477,3.732Zm0-9.893a6.072,6.072,0,0,0-6.183,6.161,6.085,6.085,0,0,0,6.183,6.159,6.085,6.085,0,0,0,6.184-6.159,6.072,6.072,0,0,0-6.184-6.161ZM39.24-8.295a3.563,3.563,0,0,1-3.477-3.732A3.55,3.55,0,0,1,39.24-15.76a3.548,3.548,0,0,1,3.476,3.734A3.562,3.562,0,0,1,39.24-8.295Zm0-9.893a6.072,6.072,0,0,0-6.183,6.161A6.085,6.085,0,0,0,39.24-5.867a6.085,6.085,0,0,0,6.183-6.159,6.072,6.072,0,0,0-6.183-6.161Z" fill="none" clip-rule="evenodd"/></clipPath><clipPath id="b"><path d="M-682,705H758V-6583H-682Z" fill="none"/></clipPath><clipPath id="c"><path d="M4.4-40a4.378,4.378,0,0,1,1.738.354,3.5,3.5,0,0,1,1.326.946l-.745.745A2.861,2.861,0,0,0,4.4-38.959a3.222,3.222,0,0,0-2.314.94,3.243,3.243,0,0,0-.976,2.444,3.239,3.239,0,0,0,.976,2.443,3.217,3.217,0,0,0,2.314.94,3.213,3.213,0,0,0,2.366-.946,2.656,2.656,0,0,0,.709-1.715H4.4v-1.018h4.1a3.631,3.631,0,0,1,.059.64A3.824,3.824,0,0,1,7.512-32.4,4.108,4.108,0,0,1,4.4-31.15a4.259,4.259,0,0,1-3.117-1.272A4.255,4.255,0,0,1,0-35.575a4.258,4.258,0,0,1,1.283-3.154A4.263,4.263,0,0,1,4.4-40Zm38.035,0a4.153,4.153,0,0,1,3.1,1.289,4.331,4.331,0,0,1,1.254,3.136,4.334,4.334,0,0,1-1.248,3.14,4.155,4.155,0,0,1-3.106,1.285,4.15,4.15,0,0,1-3.1-1.285,4.329,4.329,0,0,1-1.248-3.14,4.332,4.332,0,0,1,1.248-3.141A4.154,4.154,0,0,1,42.436-40Zm-27.364.189v1.041H11.215v2.685h3.477v1.018H11.215v2.685h3.857v1.042H10.126v-8.471Zm6.956,0v1.041H19.662v7.431H18.573v-7.431H16.207v-1.041Zm5.3,0v8.471H26.24v-8.471Zm7.194,0v1.041H32.156v7.431H31.068v-7.431H28.7v-1.041Zm15.119,0,4.117,6.589h.048l-.048-1.632v-4.957h1.09v8.471H53.712l-4.306-6.91h-.048l.048,1.634v5.276H48.317v-8.471Zm-7.206.852a3.108,3.108,0,0,0-2.3.953,3.32,3.32,0,0,0-.94,2.431,3.322,3.322,0,0,0,.94,2.431,3.107,3.107,0,0,0,2.3.952,3.109,3.109,0,0,0,2.3-.952,3.318,3.318,0,0,0,.942-2.431,3.315,3.315,0,0,0-.942-2.431A3.11,3.11,0,0,0,42.436-38.959Z" fill="none" clip-rule="evenodd"/></clipPath></defs><g transform="translate(-584.949 -5945)"><rect width="247" height="77" rx="38.5" transform="translate(584.949 5945)" fill="#ff3e63"/><g transform="translate(-2046.113 1175.838)"><g transform="translate(2661.063 4786.162)"><path d="M2664.317,4842.185a3.03,3.03,0,0,1,.329-.5q9.393-9.408,18.8-18.808c.048-.048.1-.089.065-.055l5.95,5.7c-.258.159-.444.282-.637.392q-11.182,6.363-22.368,12.718c-.372.211-.777.366-1.167.548Z" transform="translate(-2662.249 -4799.518)" fill="#fff"/><path d="M2680.563,4808.493l-19.3,19.31c-.242-.638-.3-37.5.044-38.834Z" transform="translate(-2661.063 -4787.185)" fill="#fff"/><path d="M2664.461,4786.162a8.315,8.315,0,0,1,1.848.541q11.507,6.5,22.98,13.06a.858.858,0,0,1,.112.093l-5.841,5.632-19.146-19.106Z" transform="translate(-2662.284 -4786.162)" fill="#fff"/><path d="M2704.02,4822.485l-6.271-6.279,6.25-6.332c1,.567,2.038,1.153,3.074,1.742,1.26.715,2.526,1.417,3.772,2.156a5.185,5.185,0,0,1,1.135.884,2.123,2.123,0,0,1,.006,3.043,3.373,3.373,0,0,1-.782.67C2708.8,4819.763,2706.379,4821.136,2704.02,4822.485Z" transform="translate(-2674.433 -4794.803)" fill="#fff"/></g></g><g transform="translate(20 36)"><g transform="translate(659 5968)" clip-path="url(#a)"><g clip-path="url(#b)"><path d="M-5-30H127.777V4.662H-5Z" fill="#fff"/></g></g><g transform="translate(659 5968)" clip-path="url(#c)"><g clip-path="url(#b)"><path d="M-5-45H59.849v18.85H-5Z" fill="#fff"/></g></g></g></g></svg>