<svg xmlns="http://www.w3.org/2000/svg" width="120" height="120" viewBox="0 0 120 120"><g transform="translate(0)"><g transform="translate(0 0)"><path d="M3285.394,6808.256h-7.506a8.92,8.92,0,0,0-1.018-.2,57.032,57.032,0,0,1-31.206-11.819c-17.881-13.975-25.949-32.4-23.573-55,1.676-15.941,9.1-29.063,21.456-39.232a59.463,59.463,0,0,1,68.18-5.527c16,9.352,25.665,23.362,29.054,41.607.4,2.14.607,4.314.9,6.473v7.494a6.73,6.73,0,0,0-.194.905,57.7,57.7,0,0,1-9.732,28.314,59.222,59.222,0,0,1-39.66,26.059C3289.882,6807.74,3287.629,6807.951,3285.394,6808.256Zm-49.363-59.95a25.73,25.73,0,1,0,25.687-25.862A25.777,25.777,0,0,0,3236.031,6748.306Zm53.978-.092a40.008,40.008,0,0,0,1.986,13.125c1.145,3.4,2.674,6.592,5.426,9.02,3.546,3.129,7.571,3.057,11.038-.154a17.514,17.514,0,0,0,4.407-6.69,41.565,41.565,0,0,0,.321-29.623,17.761,17.761,0,0,0-5.13-7.849c-3.275-2.78-7.14-2.917-10.289-.023a20.3,20.3,0,0,0-4.091,5.333C3290.888,6736.6,3290.035,6742.334,3290.008,6748.214Zm28.2-.8a75.876,75.876,0,0,0,1.471,16.842,21.9,21.9,0,0,0,1.724,4.808c.706,1.43,1.854,1.4,2.654.029a9.227,9.227,0,0,0,1.206-2.89c.662-3.673,1.419-7.352,1.711-11.061a80.308,80.308,0,0,0-1.087-22.354,23.308,23.308,0,0,0-1.834-5.26c-.679-1.436-1.838-1.41-2.649-.025a13.118,13.118,0,0,0-1.293,3.11A66.617,66.617,0,0,0,3318.211,6747.418Z" transform="translate(-3221.684 -6688.256)" fill="#581d9d"/></g></g></svg>