<svg xmlns="http://www.w3.org/2000/svg" xmlns:xlink="http://www.w3.org/1999/xlink" width="512.712" height="487.431" viewBox="0 0 512.712 487.431"><defs><clipPath id="a"><path d="M4206.225,1548.686v111.53a199.806,199.806,0,0,0-53.562,7.092V1555.777A199.857,199.857,0,0,1,4206.225,1548.686Z" transform="translate(-4152.663 -1548.686)" fill="none"/></clipPath><clipPath id="b"><path d="M4162.164,1562.092v111.531a141.589,141.589,0,0,0-35.781,15.21V1577.3A141.536,141.536,0,0,1,4162.164,1562.092Z" transform="translate(-4126.383 -1562.092)" fill="none"/></clipPath><clipPath id="c"><path d="M4134.859,1592.638v111.53c-17.167,10.557-28.722,24.158-31.92,39.241V1631.879C4106.137,1616.8,4117.692,1603.2,4134.859,1592.638Z" transform="translate(-4102.938 -1592.638)" fill="none"/></clipPath><clipPath id="d"><path d="M4275.331,1570.7v111.53c-21.824-11.667-51.111-18.815-83.3-18.815V1551.886C4224.22,1551.886,4253.507,1559.034,4275.331,1570.7Z" transform="translate(-4192.029 -1551.886)" fill="none"/></clipPath><clipPath id="e"><path d="M4276.787,1598.434v111.531a95.145,95.145,0,0,0-23.576-17.275v-111.53A95.1,95.1,0,0,1,4276.787,1598.434Z" transform="translate(-4253.211 -1581.159)" fill="none"/></clipPath><clipPath id="f"><path d="M4285.857,1634.853v111.531c0-12.342-5.563-23.932-15.33-34V1600.849C4280.294,1610.92,4285.857,1622.511,4285.857,1634.853Z" transform="translate(-4270.527 -1600.849)" fill="none"/></clipPath><clipPath id="g"><path d="M4380.163,1624.636v111.532a92.864,92.864,0,0,1-2.131,19.44v-111.53A92.871,92.871,0,0,0,4380.163,1624.636Z" transform="translate(-4378.032 -1624.636)" fill="none"/></clipPath><clipPath id="h"><path d="M4398.733,1652.006v111.531c-6.875,32.091-28.209,58.336-66.661,81.988v-111.53C4370.524,1710.343,4391.859,1684.1,4398.733,1652.006Z" transform="translate(-4332.072 -1652.006)" fill="none"/></clipPath><clipPath id="i"><path d="M4335.072,1726.3v111.532a228.868,228.868,0,0,1-22.6,12.3V1738.6A229,229,0,0,0,4335.072,1726.3Z" transform="translate(-4312.476 -1726.303)" fill="none"/></clipPath><clipPath id="j"><path d="M4343.1,1745.561v111.53c-34.544,16.63-71.073,26.618-115.346,31.559V1777.119C4272.032,1772.178,4308.561,1762.191,4343.1,1745.561Z" transform="translate(-4227.759 -1745.561)" fill="none"/></clipPath><clipPath id="k"><path d="M4103.179,1638.144v111.531a41.578,41.578,0,0,0-.907,8.553V1646.7A41.568,41.568,0,0,1,4103.179,1638.144Z" transform="translate(-4102.271 -1638.144)" fill="none"/></clipPath><clipPath id="l"><path d="M4004.464,1756.316V1644.785a83.941,83.941,0,0,0,4.834,27.428c23.7,69.923,130.52,118.469,250.228,118.469a442.378,442.378,0,0,0,48.962-2.716V1899.5a442.672,442.672,0,0,1-48.962,2.715c-119.708,0-226.527-48.546-250.228-118.469A83.931,83.931,0,0,1,4004.464,1756.316Z" transform="translate(-4004.464 -1644.785)" fill="none"/></clipPath></defs><g transform="translate(143.474)" style="isolation:isolate"><path d="M4109.841,1507.471V1619l58.3,68.564c1.8-.5,3.626-.974,5.471-1.428q.665-.164,1.336-.323c1.842-.44,3.7-.86,5.587-1.247.154-.033.311-.06.464-.091,1.769-.358,3.56-.689,5.362-1,.461-.081.924-.161,1.386-.237,1.928-.32,3.87-.619,5.837-.885.264-.037.534-.067.8-.1q2.659-.349,5.363-.629c.465-.049.93-.1,1.4-.144q3.051-.3,6.147-.513c.305-.021.613-.034.917-.053q2.7-.171,5.433-.272c.561-.021,1.124-.042,1.687-.059,2.113-.063,4.235-.108,6.375-.108V1492.655C4182.237,1492.655,4145.3,1497.547,4109.841,1507.471Zm70.7,65.565h0c.032-.007.062-.015.094-.021C4180.6,1573.021,4180.573,1573.029,4180.542,1573.036Zm-6.92,1.57h-.005c.443-.109.888-.216,1.336-.324h0Q4174.281,1574.444,4173.621,1574.606Z" transform="translate(-4109.841 -1492.655)" fill="#78aa24"/><g style="isolation:isolate"><path d="M4221.707,1492.655v76.288a199.868,199.868,0,0,0-53.562,7.091l-58.3-68.563C4145.3,1497.547,4182.237,1492.655,4221.707,1492.655Z" transform="translate(-4109.841 -1492.655)" fill="#9bdc2f"/><g transform="translate(58.304 76.288)" style="isolation:isolate"><g clip-path="url(#a)"><g style="isolation:isolate"><path d="M4197.188,1548.686v111.53c-6.648,0-13.171.309-19.53.9V1549.583c6.358-.588,12.881-.894,19.53-.9" transform="translate(-4143.626 -1548.686)" fill="#78aa24"/><path d="M4186.695,1549.345v111.531a191.871,191.871,0,0,0-34.032,6.2V1555.539a192.037,192.037,0,0,1,34.032-6.194" transform="translate(-4152.663 -1548.448)" fill="#78aa24"/></g></g></g><g transform="translate(0 14.817)"><path d="M4168.145,1572.1v111.531l-58.3-68.563V1503.537Z" transform="translate(-4109.841 -1503.537)" fill="#6f9d22"/></g></g></g><g transform="translate(68.702 25.978)" style="isolation:isolate"><path d="M4129.7,1511.735c-30.4,8.5-51.7,17.543-74.772,31.727v111.53l97.295,52.046a141.594,141.594,0,0,1,35.781-15.21V1580.3Z" transform="translate(-4054.923 -1511.735)" fill="#1e9f61"/><g style="isolation:isolate"><g transform="translate(0)"><path d="M4129.7,1511.735,4188,1580.3a141.541,141.541,0,0,0-35.781,15.21l-97.295-52.046C4078,1529.278,4099.294,1520.239,4129.7,1511.735Z" transform="translate(-4054.923 -1511.735)" fill="#27cd7e"/></g><g transform="translate(97.296 68.563)" style="isolation:isolate"><g clip-path="url(#b)"><g style="isolation:isolate"><path d="M4162.164,1562.092v111.531a141.589,141.589,0,0,0-35.781,15.21V1577.3a141.536,141.536,0,0,1,35.781-15.21" transform="translate(-4126.383 -1562.092)" fill="#1e9f61"/></g></g></g><g transform="translate(0 31.726)"><path d="M4152.218,1587.083v111.531l-97.3-52.046V1535.037Z" transform="translate(-4054.923 -1535.037)" fill="#1d955c"/></g></g></g><g transform="translate(2.053 84.085)" style="isolation:isolate"><path d="M4139.455,1752.041c.063-.184.123-.369.188-.553q.441-1.217.954-2.421c.076-.181.161-.361.241-.54q.427-.968.9-1.924c.11-.223.221-.447.335-.67.406-.793.83-1.581,1.284-2.361l0-.005c.424-.728.88-1.447,1.345-2.163.647-1,1.324-2,2.051-2.98l0-.007c.729-.984,1.506-1.953,2.309-2.912.248-.294.5-.584.758-.875.591-.681,1.2-1.355,1.824-2.023.291-.308.581-.617.877-.922q1.046-1.072,2.154-2.12c.225-.214.44-.43.668-.641q1.453-1.346,3.01-2.651c.246-.2.5-.4.75-.607q1.22-1,2.5-1.978c.364-.279.736-.554,1.11-.83q1.206-.893,2.464-1.761c.359-.248.714-.5,1.078-.743,1.191-.8,2.4-1.591,3.654-2.362V1606.458l-97.294-52.046c-38.44,23.651-59.774,49.9-66.649,81.988v111.53l132.023,9.3c.178-.843.392-1.679.624-2.512.062-.233.132-.464.2-.7Q4139.113,1753.026,4139.455,1752.041Z" transform="translate(-4005.972 -1554.412)" fill="#7d1459"/><g style="isolation:isolate"><path d="M4072.621,1554.412l97.294,52.046c-17.167,10.557-28.722,24.158-31.92,39.241l-132.023-9.3C4012.847,1604.308,4034.181,1578.063,4072.621,1554.412Z" transform="translate(-4005.972 -1554.412)" fill="#a81b78"/><g transform="translate(132.023 52.046)" style="isolation:isolate"><g clip-path="url(#c)"><g style="isolation:isolate"><path d="M4133.133,1592.638v111.53c-11.038,6.787-19.754,14.833-25.422,23.721V1616.359c5.668-8.888,14.385-16.933,25.422-23.721" transform="translate(-4101.212 -1592.638)" fill="#7d1459"/><path d="M4109.437,1610.06v111.531a46.952,46.952,0,0,0-6.5,15.52V1625.58a46.957,46.957,0,0,1,6.5-15.52" transform="translate(-4102.938 -1586.339)" fill="#7d1459"/></g></g></g><g transform="translate(0 81.988)"><path d="M4138,1623.928v111.531l-132.023-9.3V1614.629Z" transform="translate(-4005.972 -1614.629)" fill="#80155c"/></g></g></g><path d="M4192,1495.856v111.531l.037,76.288c26.155,0,50.394,4.718,70.27,12.745a134.661,134.661,0,0,1,13.032,6.07h0l90.691-55.778V1535.181C4316.562,1508.719,4259.644,1495.856,4192,1495.856Z" transform="translate(-3936.662 -1491.498)" fill="#c42352"/><g transform="translate(255.34 4.358)" style="isolation:isolate"><g style="isolation:isolate"><g transform="translate(0 0)"><path d="M4192.039,1572.144v111.531l-.037-76.288V1495.856Z" transform="translate(-4192.002 -1495.856)" fill="#b3204a"/></g><path d="M4192,1495.856c67.642,0,124.56,12.863,174.029,39.325l-90.691,55.778c-21.824-11.669-51.111-18.817-83.3-18.817Z" transform="translate(-4192.002 -1495.856)" fill="#fa2d68"/><g transform="translate(83.338 39.325)"><path d="M4343.9,1524.739v111.531l-90.691,55.779V1580.517Z" transform="translate(-4253.211 -1524.739)" fill="#c42352"/></g><g transform="translate(0.037 76.287)" style="isolation:isolate"><g clip-path="url(#d)"><g style="isolation:isolate"><path d="M4275.331,1570.7v111.53c-21.824-11.667-51.111-18.815-83.3-18.815V1551.886c32.191,0,61.478,7.148,83.3,18.817" transform="translate(-4192.029 -1551.886)" fill="#ba224d"/></g></g></g></g></g><g transform="translate(338.678 64.722)" style="isolation:isolate"><path d="M4343.9,1540.191l-90.691,55.779V1707.5a105.223,105.223,0,0,1,15.836,10.292,80.233,80.233,0,0,1,7.74,6.983h0l116.277-36.97V1576.276C4379.4,1562.135,4364.524,1551.213,4343.9,1540.191Z" transform="translate(-4253.211 -1540.191)" fill="#ae3f29"/><g style="isolation:isolate"><path d="M4343.9,1540.191c20.623,11.022,35.5,21.944,49.163,36.085l-116.277,36.97a95.108,95.108,0,0,0-23.576-17.275Z" transform="translate(-4253.211 -1540.191)" fill="#dd5034"/><g transform="translate(23.576 36.085)"><path d="M4386.8,1566.694v111.531l-116.276,36.97V1603.664Z" transform="translate(-4270.527 -1566.694)" fill="#ae3f29"/></g><g transform="translate(0 55.78)" style="isolation:isolate"><g clip-path="url(#e)"><g style="isolation:isolate"><path d="M4276.787,1598.434v111.531a95.145,95.145,0,0,0-23.576-17.275v-111.53a95.1,95.1,0,0,1,23.576,17.275" transform="translate(-4253.211 -1581.159)" fill="#a43c27"/></g></g></g></g></g><g transform="translate(362.255 110.34)" style="isolation:isolate"><path d="M4419.017,1643.535c.139-24.566-10.387-47.249-32.212-69.839l-116.277,36.97V1722.2a56.784,56.784,0,0,1,12.248,18.3,43.592,43.592,0,0,1,2.175,7.184v17.052l131.949,9.291a95.475,95.475,0,0,0,2-14.658q.133-2.4.133-4.781h0V1643.053C4419.03,1643.213,4419.017,1643.375,4419.017,1643.535Zm-1.281,14.522c.046-.282.1-.565.142-.846-.02.114-.029.227-.048.342C4417.8,1657.719,4417.763,1657.889,4417.735,1658.057Zm1.146-10.048c0-.073.013-.148.017-.222C4418.894,1647.86,4418.886,1647.935,4418.881,1648.009Zm-.427,4.967c.03-.267.054-.534.082-.8C4418.508,1652.442,4418.484,1652.709,4418.454,1652.976Z" transform="translate(-4270.527 -1573.696)" fill="#bf6700"/><g style="isolation:isolate"><g transform="translate(0 36.97)" style="isolation:isolate"><g clip-path="url(#f)"><g style="isolation:isolate"><path d="M4285.857,1634.853v111.531c0-12.342-5.563-23.932-15.33-34V1600.849c9.767,10.071,15.33,21.662,15.33,34" transform="translate(-4270.527 -1600.849)" fill="#ba6400"/></g></g></g><path d="M4386.8,1573.7c27.326,28.282,36.957,56.705,30.095,88.8L4284.95,1653.2a40.578,40.578,0,0,0,.907-8.531c0-12.343-5.563-23.933-15.33-34Z" transform="translate(-4270.527 -1573.696)" fill="#fa8600"/><g transform="translate(146.373 69.357)" style="isolation:isolate"><g clip-path="url(#g)"><g style="isolation:isolate"><path d="M4380.163,1624.636v111.532a92.864,92.864,0,0,1-2.131,19.44v-111.53a92.871,92.871,0,0,0,2.131-19.442" transform="translate(-4378.032 -1624.636)" fill="#ba6400"/></g></g></g><g transform="translate(14.423 79.506)"><path d="M4413.069,1641.382v111.531l-131.949-9.292V1632.09Z" transform="translate(-4281.12 -1632.09)" fill="#bf6700"/></g></g></g><g transform="translate(348.829 207.67)" style="isolation:isolate"><path d="M4413.383,1795.171c.671-1.175,1.325-2.355,1.947-3.545.07-.138.137-.276.208-.414.557-1.08,1.088-2.167,1.6-3.261.145-.306.289-.613.43-.919.557-1.216,1.1-2.437,1.6-3.669.042-.1.081-.208.123-.311.468-1.147.91-2.3,1.333-3.465q.177-.48.348-.961c.443-1.258.872-2.521,1.266-3.8.019-.06.035-.12.054-.18q.563-1.84,1.055-3.71.131-.5.259-.994c.333-1.306.651-2.615.936-3.94V1654.474l-131.949-9.293c-3.187,15.1-14.754,28.712-31.934,39.275v111.532l97.222,52c1.378-.848,2.727-1.7,4.062-2.554.417-.267.825-.535,1.238-.8q1.392-.9,2.754-1.812c.446-.3.892-.6,1.332-.9q1.363-.923,2.69-1.852c.372-.261.751-.521,1.12-.783q1.849-1.309,3.635-2.628c.1-.075.2-.15.3-.225q1.63-1.209,3.2-2.429c.366-.286.727-.572,1.091-.858q1.179-.929,2.333-1.865c.382-.31.763-.621,1.14-.933q1.174-.974,2.314-1.952c.306-.263.617-.523.919-.786q1.567-1.362,3.072-2.735c.147-.135.289-.271.435-.406q1.278-1.178,2.51-2.366c.316-.3.625-.61.936-.915q.984-.966,1.94-1.939c.315-.323.63-.644.941-.968.667-.693,1.32-1.39,1.966-2.09.237-.256.479-.511.712-.768q1.292-1.423,2.528-2.865c.156-.181.3-.366.457-.549q1-1.176,1.952-2.362c.26-.323.514-.647.768-.971q.8-1.011,1.564-2.03c.252-.335.505-.67.754-1.006q.823-1.119,1.609-2.248c.175-.251.355-.5.527-.749q1.029-1.5,2-3.009c.027-.043.058-.086.085-.129.079-.122.148-.249.226-.373q.971-1.536,1.879-3.091C4413.043,1795.756,4413.214,1795.464,4413.383,1795.171Zm-21.351-84.594,0,0c.316-.3.625-.611.936-.917l0,0C4392.653,1709.97,4392.347,1710.275,4392.032,1710.577Zm-2.947,2.775h0c.147-.135.288-.271.435-.406h0C4389.371,1713.082,4389.232,1713.219,4389.085,1713.352Zm-3.983,3.515-.007.005c.306-.263.617-.523.919-.787v0C4385.712,1716.349,4385.406,1716.607,4385.1,1716.867Zm-3.458,2.888,0,0q.573-.466,1.14-.934l0,0Q4382.214,1719.292,4381.644,1719.755Zm-3.425,2.723h0c.367-.285.728-.571,1.092-.856l-.007,0C4378.941,1721.912,4378.582,1722.2,4378.219,1722.478Zm-3.5,2.656h0c.107-.079.209-.159.318-.239l-.019.014C4374.915,1724.985,4374.818,1725.06,4374.718,1725.135Zm-4.752,3.406,0,0c.372-.26.751-.52,1.12-.782h0C4370.716,1728.022,4370.338,1728.281,4369.966,1728.541Zm-4.023,2.75h0q.669-.448,1.332-.9l0,0Q4366.612,1730.845,4365.942,1731.292Zm-3.988,2.613,0,0c.417-.267.825-.535,1.238-.8l-.005,0C4362.774,1733.373,4362.368,1733.639,4361.954,1733.9Z" transform="translate(-4260.666 -1645.181)" fill="#ae941e"/><g style="isolation:isolate"><path d="M4292.6,1645.181l131.949,9.293c-6.875,32.092-28.209,58.337-66.661,81.988l-97.222-52C4277.846,1673.893,4289.413,1660.279,4292.6,1645.181Z" transform="translate(-4260.666 -1645.181)" fill="#e1bf26"/><g transform="translate(97.222 9.292)" style="isolation:isolate"><g clip-path="url(#h)"><g style="isolation:isolate"><path d="M4384.692,1652.006v111.531a101.078,101.078,0,0,1-13.783,33.509V1685.515a101.078,101.078,0,0,0,13.783-33.509" transform="translate(-4318.031 -1652.006)" fill="#ae941e"/><path d="M4384.951,1676.617v111.531c-11.3,17.723-28.71,33.614-52.878,48.479V1725.1c24.168-14.867,41.574-30.756,52.878-48.479" transform="translate(-4332.072 -1643.108)" fill="#ae941e"/></g></g></g><g transform="translate(0 39.276)"><path d="M4357.888,1726.031v111.531l-97.222-52V1674.027Z" transform="translate(-4260.666 -1674.027)" fill="#a48b1c"/></g></g></g><g transform="translate(333.912 266.117)"><path d="M4260.542,1688.108a118.316,118.316,0,0,1-10.833,5.89V1805.53l85.459,58.413c3.239-1.557,6.146-3.01,8.918-4.47,4.623-2.43,8.875-4.873,13.676-7.829h0V1740.112Z" transform="translate(-4249.71 -1688.108)" fill="#5293ab"/><g style="isolation:isolate"><path d="M4260.542,1688.108l97.221,52a228.9,228.9,0,0,1-22.595,12.3L4249.71,1694A118.316,118.316,0,0,0,4260.542,1688.108Z" transform="translate(-4249.71 -1688.108)" fill="#6abedd"/><g transform="translate(85.459 52.004)" style="isolation:isolate"><g clip-path="url(#i)"><g style="isolation:isolate"><path d="M4335.072,1726.3v111.532a228.868,228.868,0,0,1-22.6,12.3V1738.6a229,229,0,0,0,22.6-12.3" transform="translate(-4312.476 -1726.303)" fill="#5293ab"/></g></g></g><g transform="translate(0 5.89)"><path d="M4335.169,1750.848v111.531l-85.459-58.414V1692.434Z" transform="translate(-4249.71 -1692.434)" fill="#4d899f"/></g></g></g><path d="M4264.381,1702.658c-15.574,7.506-34.47,12.82-55.252,15.118v111.531l25.365,74.855c44.273-4.941,80.8-14.929,115.346-31.559v-111.53Z" transform="translate(-3930.47 -1416.731)" fill="#573abc"/><g transform="translate(278.659 285.927)"><g style="isolation:isolate"><path d="M4264.381,1702.658l85.459,58.414c-34.544,16.63-71.073,26.617-115.346,31.557l-25.365-74.853C4229.911,1715.478,4248.807,1710.164,4264.381,1702.658Z" transform="translate(-4209.129 -1702.658)" fill="#714bf3"/><g transform="translate(25.365 58.414)" style="isolation:isolate"><g clip-path="url(#j)"><g style="isolation:isolate"><path d="M4343.1,1745.561v111.53c-34.544,16.63-71.073,26.618-115.346,31.559V1777.119c44.273-4.941,80.8-14.928,115.346-31.558" transform="translate(-4227.759 -1745.561)" fill="#573abc"/></g></g></g><g transform="translate(0 15.119)"><path d="M4234.494,1788.616v111.531l-25.365-74.854V1713.762Z" transform="translate(-4209.129 -1713.762)" fill="#5135ae"/></g></g></g><g transform="translate(0 188.79)" style="isolation:isolate"><path d="M4308.488,1792.836l-25.365-74.853a211.3,211.3,0,0,1-23.282,1.278c-62.447,0-113.947-26.864-121.3-61.543v-17.105l-132.023-9.3a86.492,86.492,0,0,0-2.037,19.041c0-.234-.016-.465-.016-.7v111.531a83.93,83.93,0,0,0,4.834,27.428c23.7,69.923,130.52,118.469,250.228,118.469,3.026,0,6.061-.042,9.1-.1.565-.012,1.13-.022,1.7-.035q4.4-.108,8.813-.3c.569-.026,1.138-.056,1.708-.083,3.06-.147,6.123-.316,9.193-.528h.02c3.064-.211,6.134-.466,9.205-.743.343-.031.687-.05,1.03-.083.27-.024.541-.057.81-.082q3.691-.349,7.384-.753Zm-303.915-139.284c-.02-.384-.035-.77-.049-1.153C4004.539,1652.783,4004.554,1653.168,4004.574,1653.552Zm1.938,13.723c-.088-.385-.177-.772-.258-1.156C4006.334,1666.5,4006.423,1666.89,4006.511,1667.275Zm-.7-3.377c-.058-.317-.124-.634-.178-.952C4005.686,1663.264,4005.752,1663.581,4005.81,1663.9Zm-.665-4.086c-.016-.109-.025-.218-.039-.327C4005.12,1659.595,4005.129,1659.7,4005.145,1659.813Zm-.349-3.121c-.032-.343-.055-.687-.082-1.031C4004.742,1656,4004.765,1656.349,4004.8,1656.692Zm2.217,12.669c.1.392.2.785.305,1.18C4007.213,1670.146,4007.113,1669.753,4007.014,1669.361Zm.93,3.4c.1.346.2.69.3,1.037C4008.142,1673.452,4008.044,1673.108,4007.944,1672.762Z" transform="translate(-4004.464 -1631.314)" fill="#601c5d"/><g style="isolation:isolate"><g transform="translate(133.169 9.299)" style="isolation:isolate"><g clip-path="url(#k)"><g style="isolation:isolate"><path d="M4103.179,1638.144v111.531a41.578,41.578,0,0,0-.907,8.553V1646.7a41.568,41.568,0,0,1,.907-8.553" transform="translate(-4102.271 -1638.144)" fill="#601c5d"/></g></g></g><g transform="translate(0 18.341)" style="isolation:isolate"><g clip-path="url(#l)"><g style="isolation:isolate"><path d="M4229.935,1749.946v111.532q-4.1.455-8.193.835V1750.782q4.093-.378,8.193-.836" transform="translate(-3925.91 -1606.765)" fill="#6d156d"/><path d="M4300.295,1788.8v111.531c-13.687,1.266-27.309,1.88-40.769,1.88-119.708,0-226.527-48.546-250.228-118.469a83.931,83.931,0,0,1-4.834-27.428V1644.785a83.941,83.941,0,0,0,4.834,27.428c23.7,69.923,130.52,118.469,250.228,118.469,13.46,0,27.082-.614,40.769-1.88" transform="translate(-4004.464 -1644.785)" fill="#6d156d"/></g></g></g><g transform="translate(0)"><path d="M4006.517,1631.314l132.023,9.3a41.567,41.567,0,0,0-.907,8.553c0,38.713,54.714,70.1,122.208,70.1a211.3,211.3,0,0,0,23.282-1.28l25.365,74.853a442.378,442.378,0,0,1-48.962,2.716c-119.708,0-226.527-48.546-250.228-118.469C4003.919,1661.214,4003.085,1647.36,4006.517,1631.314Z" transform="translate(-4004.464 -1631.314)" fill="#a51ca5"/></g></g></g></svg>