<svg xmlns="http://www.w3.org/2000/svg" width="48.161" height="48.161" viewBox="0 0 48.161 48.161"><path d="M80.867,652.679v16.773L96.174,660.9Z" transform="translate(-61.856 -636.697)" fill="#fff"/><path d="M46.154,22.074a2.007,2.007,0,0,0-2.007,2.007A20.081,20.081,0,1,1,37.834,9.475H34.672a2.007,2.007,0,0,0,0,4.013h7.784A2.008,2.008,0,0,0,44.706,11.5V3.47a2.007,2.007,0,1,0-4.013,0V6.647A24.08,24.08,0,0,0,0,24.081a23.887,23.887,0,0,0,4.706,14.3,24.082,24.082,0,0,0,43.455-14.3,2.007,2.007,0,0,0-2.007-2.007" transform="translate(0)" fill="#fff"/><path d="M.781,18.747A.781.781,0,0,1,0,17.966V.781A.781.781,0,0,1,1.158.1L16.768,8.682a.781.781,0,0,1,.033,1.364l-.036.02L1.158,18.65a.78.78,0,0,1-.376.1M1.562,2.1V16.645L14.783,9.373Z" transform="translate(18.221 14.707)" fill="#fff"/></svg>