<svg xmlns="http://www.w3.org/2000/svg" width="48.161" height="48.161" viewBox="0 0 48.161 48.161"><path d="M38.127,28.094a10.018,10.018,0,0,0-7.889,3.846L19.723,26.682a10.009,10.009,0,0,0,0-5.2l10.515-5.258a10,10,0,1,0-1.8-3.587L17.923,17.892a10.034,10.034,0,1,0,0,12.376l10.515,5.258a10.033,10.033,0,1,0,9.69-7.432m0-24.08A6.02,6.02,0,1,1,32.782,12.8c-.011-.025-.02-.05-.033-.075s-.035-.062-.053-.093a6.019,6.019,0,0,1,5.431-8.616M10.034,30.1a6.023,6.023,0,1,1,5.412-3.386c-.01.019-.022.036-.031.056s-.011.026-.017.039A6.025,6.025,0,0,1,10.034,30.1M38.127,44.148a6.019,6.019,0,0,1-5.419-8.64c.013-.024.029-.045.041-.069s.021-.049.033-.074a6.019,6.019,0,1,1,5.346,8.783" fill="#fff"/></svg>