<svg xmlns="http://www.w3.org/2000/svg" width="120" height="120" viewBox="0 0 120 120"><g transform="translate(0)"><path d="M2587.577,6793.461v-7.5c.145-1.116.3-2.231.432-3.349a57.6,57.6,0,0,1,17.279-35.38c15.474-15,34.012-20.4,55.126-16.088,26.876,5.486,46.87,30.027,47.158,57.442a60.09,60.09,0,0,1-49.542,60.19c-2.215.413-4.468.625-6.7.931h-7.5a5.093,5.093,0,0,0-.783-.186,57.934,57.934,0,0,1-28.647-9.86c-14.084-9.561-22.765-22.73-25.887-39.5C2588.1,6797.95,2587.883,6795.7,2587.577,6793.461Zm59.186,15.264c.378.267.7.485,1.013.715q6.648,4.9,13.3,9.8c3.184,2.341,5.376,1.487,6.2-2.4q3.127-14.706,6.26-29.412c1.159-5.456,2.327-10.91,3.45-16.373.333-1.62.6-3.331-.863-4.582-1.438-1.229-2.952-.479-4.411.084q-21.389,8.251-42.775,16.508c-4.837,1.868-9.682,3.715-14.5,5.63-1.114.442-2.435,1.028-2.38,2.439.056,1.458,1.472,1.761,2.621,2.125,4.385,1.391,8.783,2.741,13.161,4.152a2.662,2.662,0,0,0,2.494-.314q16.166-10.252,32.386-20.42a6.742,6.742,0,0,1,1.643-.875,3.863,3.863,0,0,1,1.392.132,6.253,6.253,0,0,1-.612,1.035,14.111,14.111,0,0,1-1.2,1.116q-12.653,11.427-25.317,22.84a3.1,3.1,0,0,0-1.16,2.382c-.115,2.808-.378,5.61-.573,8.414-.124,1.783-.232,3.566-.347,5.358a3.3,3.3,0,0,0,2.792-1.2C2641.781,6813.527,2644.226,6811.169,2646.763,6808.725Z" transform="translate(-2587.577 -6729.708)" fill="#581d9d"/></g></svg>