<svg xmlns="http://www.w3.org/2000/svg" width="120" height="120" viewBox="0 0 120 120"><g transform="translate(0)"><g transform="translate(0 0)"><path d="M1942.994,6792.586h7.5c2,.259,4.021.448,6.012.788a60.216,60.216,0,0,1,49.313,48.878c.388,2.183.618,4.393.921,6.589v7.5c-.175,1.428-.326,2.859-.53,4.283-1.865,13.045-7.225,24.462-16.551,33.765-15.393,15.354-33.968,21.066-55.295,16.854-14.631-2.892-26.474-10.655-35.449-22.538a59.989,59.989,0,0,1,37.492-95.2C1938.589,6793.125,1940.8,6792.89,1942.994,6792.586Zm-22.385,65.854c2.284,5.918,6.514,8.991,12.82,9.666a28.117,28.117,0,0,1-19.832,5.715c.005.1-.008.16.011.177a3.58,3.58,0,0,0,.463.345c12.194,6.933,24.891,7.814,37.444,1.7,14.288-6.963,21.185-19.146,21.946-34.863a4.332,4.332,0,0,1,1.815-3.772,20.1,20.1,0,0,0,4.842-5.36l-7.111,1.908-.15-.3a13.738,13.738,0,0,0,5.516-6.992c-2.5.906-4.972,1.8-7.448,2.695a1.77,1.77,0,0,1-1.957-.484c-4.178-3.646-8.978-4.671-14.164-2.687a13.147,13.147,0,0,0-8.785,11.3,38.3,38.3,0,0,0-.029,4.706,39.4,39.4,0,0,1-28.163-14.316,12.741,12.741,0,0,0-1.912,7.3,14.013,14.013,0,0,0,5.815,10.863l-.182.323-5.817-1.627c.524,6.889,4.052,11.333,10.617,13.422l-.06.287Z" transform="translate(-1886.74 -6792.586)" fill="#581d9d"/></g></g></svg>